<mxfile host="app.diagrams.net" agent="Mozilla/5.0 (Windows NT 10.0; Win64; x64; rv:130.0) Gecko/20100101 Firefox/130.0" version="24.7.16">
  <diagram name="Page-1" id="2YBvvXClWsGukQMizWep">
    <mxGraphModel dx="969" dy="492" grid="1" gridSize="10" guides="1" tooltips="1" connect="1" arrows="1" fold="1" page="1" pageScale="1" pageWidth="850" pageHeight="1100" math="0" shadow="0">
      <root>
        <mxCell id="0" />
        <mxCell id="1" parent="0" />
        <mxCell id="UAcfjj_ty9bEcx-JU4vZ-3" value="" style="endArrow=none;dashed=1;html=1;rounded=0;exitX=0.062;exitY=0.994;exitDx=0;exitDy=0;exitPerimeter=0;" edge="1" parent="1" source="UAcfjj_ty9bEcx-JU4vZ-26">
          <mxGeometry width="50" height="50" relative="1" as="geometry">
            <mxPoint x="114.5" y="310" as="sourcePoint" />
            <mxPoint x="114.5" y="100" as="targetPoint" />
          </mxGeometry>
        </mxCell>
        <mxCell id="aM9ryv3xv72pqoxQDRHE-5" value="Page de connexion" style="shape=umlLifeline;perimeter=lifelinePerimeter;whiteSpace=wrap;html=1;container=0;dropTarget=0;collapsible=0;recursiveResize=0;outlineConnect=0;portConstraint=eastwest;newEdgeStyle={&quot;edgeStyle&quot;:&quot;elbowEdgeStyle&quot;,&quot;elbow&quot;:&quot;vertical&quot;,&quot;curved&quot;:0,&quot;rounded&quot;:0};" parent="1" vertex="1">
          <mxGeometry x="210" y="30" width="100" height="420" as="geometry" />
        </mxCell>
        <mxCell id="aM9ryv3xv72pqoxQDRHE-6" value="" style="html=1;points=[];perimeter=orthogonalPerimeter;outlineConnect=0;targetShapes=umlLifeline;portConstraint=eastwest;newEdgeStyle={&quot;edgeStyle&quot;:&quot;elbowEdgeStyle&quot;,&quot;elbow&quot;:&quot;vertical&quot;,&quot;curved&quot;:0,&quot;rounded&quot;:0};" parent="aM9ryv3xv72pqoxQDRHE-5" vertex="1">
          <mxGeometry x="45" y="80" width="10" height="110" as="geometry" />
        </mxCell>
        <mxCell id="aM9ryv3xv72pqoxQDRHE-9" value="Pseudo" style="html=1;verticalAlign=bottom;endArrow=block;edgeStyle=elbowEdgeStyle;elbow=vertical;curved=0;rounded=0;exitX=1;exitY=0.176;exitDx=0;exitDy=0;exitPerimeter=0;" parent="1" target="aM9ryv3xv72pqoxQDRHE-6" edge="1">
          <mxGeometry relative="1" as="geometry">
            <mxPoint x="120" y="120.00000000000003" as="sourcePoint" />
            <Array as="points">
              <mxPoint x="160" y="134.16" />
            </Array>
            <mxPoint x="220" y="134.16" as="targetPoint" />
          </mxGeometry>
        </mxCell>
        <mxCell id="UAcfjj_ty9bEcx-JU4vZ-1" value="" style="html=1;points=[];perimeter=orthogonalPerimeter;outlineConnect=0;targetShapes=umlLifeline;portConstraint=eastwest;newEdgeStyle={&quot;edgeStyle&quot;:&quot;elbowEdgeStyle&quot;,&quot;elbow&quot;:&quot;vertical&quot;,&quot;curved&quot;:0,&quot;rounded&quot;:0};" vertex="1" parent="1">
          <mxGeometry x="110" y="120" width="10" height="100" as="geometry" />
        </mxCell>
        <mxCell id="UAcfjj_ty9bEcx-JU4vZ-6" value="User" style="shape=umlActor;verticalLabelPosition=bottom;verticalAlign=top;html=1;outlineConnect=0;" vertex="1" parent="1">
          <mxGeometry x="100" y="20" width="30" height="60" as="geometry" />
        </mxCell>
        <mxCell id="UAcfjj_ty9bEcx-JU4vZ-11" value="Mot de passe" style="html=1;verticalAlign=bottom;endArrow=block;edgeStyle=elbowEdgeStyle;elbow=vertical;curved=0;rounded=0;exitX=1;exitY=0.176;exitDx=0;exitDy=0;exitPerimeter=0;" edge="1" parent="1" target="aM9ryv3xv72pqoxQDRHE-6">
          <mxGeometry relative="1" as="geometry">
            <mxPoint x="120" y="164.5" as="sourcePoint" />
            <Array as="points">
              <mxPoint x="160" y="164.5" />
            </Array>
            <mxPoint x="220" y="164.5" as="targetPoint" />
          </mxGeometry>
        </mxCell>
        <mxCell id="UAcfjj_ty9bEcx-JU4vZ-12" value="bouton de connexion" style="html=1;verticalAlign=bottom;endArrow=block;edgeStyle=elbowEdgeStyle;elbow=vertical;curved=0;rounded=0;" edge="1" parent="1" source="aM9ryv3xv72pqoxQDRHE-6">
          <mxGeometry relative="1" as="geometry">
            <mxPoint x="250" y="200" as="sourcePoint" />
            <Array as="points">
              <mxPoint x="200" y="200" />
              <mxPoint x="210" y="230" />
            </Array>
            <mxPoint x="120" y="200" as="targetPoint" />
          </mxGeometry>
        </mxCell>
        <mxCell id="UAcfjj_ty9bEcx-JU4vZ-13" value="Système d&#39;authentification" style="rounded=0;whiteSpace=wrap;html=1;" vertex="1" parent="1">
          <mxGeometry x="430" y="30" width="120" height="50" as="geometry" />
        </mxCell>
        <mxCell id="UAcfjj_ty9bEcx-JU4vZ-15" value="" style="endArrow=none;dashed=1;html=1;rounded=0;" edge="1" parent="1" source="UAcfjj_ty9bEcx-JU4vZ-14">
          <mxGeometry width="50" height="50" relative="1" as="geometry">
            <mxPoint x="489.5" y="285" as="sourcePoint" />
            <mxPoint x="489.5" y="75" as="targetPoint" />
          </mxGeometry>
        </mxCell>
        <mxCell id="UAcfjj_ty9bEcx-JU4vZ-18" value="" style="endArrow=none;dashed=1;html=1;rounded=0;exitX=0.891;exitY=0.996;exitDx=0;exitDy=0;exitPerimeter=0;" edge="1" parent="1" source="UAcfjj_ty9bEcx-JU4vZ-26" target="UAcfjj_ty9bEcx-JU4vZ-14">
          <mxGeometry width="50" height="50" relative="1" as="geometry">
            <mxPoint x="490" y="510" as="sourcePoint" />
            <mxPoint x="489.5" y="75" as="targetPoint" />
          </mxGeometry>
        </mxCell>
        <mxCell id="UAcfjj_ty9bEcx-JU4vZ-14" value="" style="html=1;points=[];perimeter=orthogonalPerimeter;outlineConnect=0;targetShapes=umlLifeline;portConstraint=eastwest;newEdgeStyle={&quot;edgeStyle&quot;:&quot;elbowEdgeStyle&quot;,&quot;elbow&quot;:&quot;vertical&quot;,&quot;curved&quot;:0,&quot;rounded&quot;:0};" vertex="1" parent="1">
          <mxGeometry x="485" y="180" width="10" height="240" as="geometry" />
        </mxCell>
        <mxCell id="UAcfjj_ty9bEcx-JU4vZ-19" value="Envoie des info à l&#39;user" style="html=1;verticalAlign=bottom;endArrow=block;edgeStyle=elbowEdgeStyle;elbow=vertical;curved=0;rounded=0;" edge="1" parent="1" source="aM9ryv3xv72pqoxQDRHE-6" target="UAcfjj_ty9bEcx-JU4vZ-14">
          <mxGeometry relative="1" as="geometry">
            <mxPoint x="270" y="209" as="sourcePoint" />
            <Array as="points">
              <mxPoint x="310" y="209" />
            </Array>
            <mxPoint x="410" y="209.5" as="targetPoint" />
          </mxGeometry>
        </mxCell>
        <mxCell id="UAcfjj_ty9bEcx-JU4vZ-26" value="" style="shape=umlFrame;whiteSpace=wrap;html=1;pointerEvents=0;" vertex="1" parent="1">
          <mxGeometry x="90" y="290" width="450" height="160" as="geometry" />
        </mxCell>
        <mxCell id="UAcfjj_ty9bEcx-JU4vZ-27" value="" style="endArrow=none;dashed=1;html=1;rounded=0;exitX=0.997;exitY=0.547;exitDx=0;exitDy=0;exitPerimeter=0;" edge="1" parent="1">
          <mxGeometry width="50" height="50" relative="1" as="geometry">
            <mxPoint x="537.7500000000001" y="380" as="sourcePoint" />
            <mxPoint x="90" y="381" as="targetPoint" />
          </mxGeometry>
        </mxCell>
        <mxCell id="UAcfjj_ty9bEcx-JU4vZ-31" value="validation info" style="html=1;align=left;spacingLeft=2;endArrow=block;rounded=0;edgeStyle=orthogonalEdgeStyle;curved=0;rounded=0;" edge="1" parent="1">
          <mxGeometry relative="1" as="geometry">
            <mxPoint x="495" y="230" as="sourcePoint" />
            <Array as="points">
              <mxPoint x="525" y="260" />
            </Array>
            <mxPoint x="500" y="260" as="targetPoint" />
          </mxGeometry>
        </mxCell>
        <mxCell id="UAcfjj_ty9bEcx-JU4vZ-32" value="If valider" style="text;html=1;align=center;verticalAlign=middle;resizable=0;points=[];autosize=1;strokeColor=none;fillColor=none;strokeWidth=1;fontSize=10;" vertex="1" parent="1">
          <mxGeometry x="80" y="318" width="60" height="30" as="geometry" />
        </mxCell>
        <mxCell id="UAcfjj_ty9bEcx-JU4vZ-33" value="" style="html=1;points=[];perimeter=orthogonalPerimeter;outlineConnect=0;targetShapes=umlLifeline;portConstraint=eastwest;newEdgeStyle={&quot;edgeStyle&quot;:&quot;elbowEdgeStyle&quot;,&quot;elbow&quot;:&quot;vertical&quot;,&quot;curved&quot;:0,&quot;rounded&quot;:0};" vertex="1" parent="1">
          <mxGeometry x="255" y="290" width="10" height="70" as="geometry" />
        </mxCell>
        <mxCell id="UAcfjj_ty9bEcx-JU4vZ-34" value="accepter" style="html=1;verticalAlign=bottom;endArrow=open;dashed=1;endSize=8;curved=0;rounded=0;" edge="1" parent="1">
          <mxGeometry relative="1" as="geometry">
            <mxPoint x="485" y="310" as="sourcePoint" />
            <mxPoint x="265" y="310" as="targetPoint" />
          </mxGeometry>
        </mxCell>
        <mxCell id="UAcfjj_ty9bEcx-JU4vZ-35" value="&lt;div&gt;redirection vers&amp;nbsp;&lt;/div&gt;&lt;div&gt;la page demandée&lt;/div&gt;" style="html=1;align=left;spacingLeft=2;endArrow=block;rounded=0;edgeStyle=orthogonalEdgeStyle;curved=0;rounded=0;" edge="1" parent="1">
          <mxGeometry relative="1" as="geometry">
            <mxPoint x="265" y="320" as="sourcePoint" />
            <Array as="points">
              <mxPoint x="310" y="320" />
              <mxPoint x="310" y="350" />
            </Array>
            <mxPoint x="270" y="350" as="targetPoint" />
          </mxGeometry>
        </mxCell>
        <mxCell id="UAcfjj_ty9bEcx-JU4vZ-36" value="" style="html=1;points=[];perimeter=orthogonalPerimeter;outlineConnect=0;targetShapes=umlLifeline;portConstraint=eastwest;newEdgeStyle={&quot;edgeStyle&quot;:&quot;elbowEdgeStyle&quot;,&quot;elbow&quot;:&quot;vertical&quot;,&quot;curved&quot;:0,&quot;rounded&quot;:0};" vertex="1" parent="1">
          <mxGeometry x="255" y="390" width="10" height="50" as="geometry" />
        </mxCell>
        <mxCell id="UAcfjj_ty9bEcx-JU4vZ-37" value="rejeter" style="html=1;verticalAlign=bottom;endArrow=open;dashed=1;endSize=8;curved=0;rounded=0;" edge="1" parent="1">
          <mxGeometry relative="1" as="geometry">
            <mxPoint x="485" y="414.57" as="sourcePoint" />
            <mxPoint x="265" y="414.57" as="targetPoint" />
          </mxGeometry>
        </mxCell>
        <mxCell id="UAcfjj_ty9bEcx-JU4vZ-38" value="&lt;div&gt;pseudo ou mot de passe&lt;/div&gt;&lt;div&gt;&amp;nbsp;incorrect&lt;/div&gt;" style="html=1;verticalAlign=bottom;endArrow=open;dashed=1;endSize=8;curved=0;rounded=0;" edge="1" parent="1" source="UAcfjj_ty9bEcx-JU4vZ-36">
          <mxGeometry relative="1" as="geometry">
            <mxPoint x="250" y="420" as="sourcePoint" />
            <mxPoint x="120" y="420" as="targetPoint" />
          </mxGeometry>
        </mxCell>
      </root>
    </mxGraphModel>
  </diagram>
</mxfile>
